<?xml version="1.0" encoding="utf-8"?><svg viewBox="0 0 320 512" xmlns="http://www.w3.org/2000/svg" xmlns:xlink="http://www.w3.org/1999/xlink"><style>:root>svg{display:none}:root>svg:target{display:block}</style><svg viewBox="0 0 26 30" id="A" xmlns="http://www.w3.org/2000/svg"><path d="M25 29.6c-.1 0-.3-.1-.3-.2L13.2 1.8 1.7 29.4c-.1.2-.3.3-.5.2-.2-.1-.3-.3-.2-.5L12.8.7c.1-.3.5-.3.6 0l11.8 28.4c.1.2 0 .4-.2.5.1 0 .1 0 0 0z" /></svg><svg  viewBox="0 0 95 7" id="Group" xmlns="http://www.w3.org/2000/svg"><path d="M5.6 3.5h.3v2.4c-.6.6-1.4.8-2.3.8C1.7 6.7.2 5.3.2 3.4S1.6.1 3.6.1c.9 0 1.7.3 2.3.9l-.2.2C5.1.6 4.4.4 3.6.4 1.8.4.5 1.7.5 3.4s1.3 3 3.1 3c.7 0 1.4-.2 2-.7V3.5zM25 4.3c1.5 0 2.3-.7 2.3-1.9S26.5.5 25 .5h-2v3.8h2zm2.3 2.5l-1.6-2.2c-.2 0-.5.1-.7.1h-2v2.2h-.3V.4H25c1.6 0 2.6.8 2.6 2.2 0 1.1-.6 1.8-1.6 2l1.7 2.3h-.4v-.1zM50.8 3.5c0-1.7-1.3-3-3.1-3-1.7 0-3 1.3-3 3s1.3 3 3 3c1.8 0 3.1-1.3 3.1-3zm-6.4 0c0-1.9 1.4-3.3 3.4-3.3 1.9 0 3.4 1.4 3.4 3.3s-1.4 3.3-3.4 3.3c-1.9 0-3.4-1.4-3.4-3.3zM67.9 4V.2h.3V4c0 1.7.8 2.5 2.2 2.5 1.4 0 2.2-.8 2.2-2.5V.2h.3V4c0 1.9-1 2.8-2.6 2.8-1.4 0-2.4-.9-2.4-2.8zM94.4 2.4c0-1.2-.8-1.9-2.3-1.9h-2v3.8h2c1.5 0 2.3-.7 2.3-1.9zm.3 0c0 1.4-1 2.2-2.6 2.2h-1.9v2.2h-.3V.3h2.3c1.5-.1 2.5.7 2.5 2.1z" /></svg><svg  viewBox="0 0 187 81" id="Logo" xmlns="http://www.w3.org/2000/svg"><g clip-path="url(#cclip0_134_1643)"><path d="M49.6 77.5h.3v2.4c-.6.6-1.4.8-2.3.8-1.9 0-3.4-1.4-3.4-3.3s1.4-3.3 3.4-3.3c.9 0 1.7.3 2.3.9l-.2.2c-.6-.6-1.3-.8-2.1-.8-1.8 0-3.1 1.3-3.1 3s1.3 3 3.1 3c.7 0 1.4-.2 2-.7v-2.2zM69 78.3c1.5 0 2.3-.7 2.3-1.9s-.8-1.9-2.3-1.9h-2v3.8h2zm2.3 2.5l-1.6-2.2c-.2 0-.5.1-.7.1h-2v2.2h-.3v-6.5H69c1.6 0 2.6.8 2.6 2.2 0 1.1-.6 1.8-1.6 2l1.7 2.3h-.4v-.1zM94.8 77.5c0-1.7-1.3-3-3.1-3-1.7 0-3 1.3-3 3s1.3 3 3 3c1.8 0 3.1-1.3 3.1-3zm-6.4 0c0-1.9 1.4-3.3 3.4-3.3 1.9 0 3.4 1.4 3.4 3.3s-1.4 3.3-3.4 3.3c-1.9 0-3.4-1.4-3.4-3.3zM111.9 78v-3.8h.3V78c0 1.7.8 2.5 2.2 2.5 1.4 0 2.2-.8 2.2-2.5v-3.8h.3V78c0 1.9-1 2.8-2.6 2.8-1.4 0-2.4-.9-2.4-2.8zM138.4 76.4c0-1.2-.8-1.9-2.3-1.9h-2v3.8h2c1.5 0 2.3-.7 2.3-1.9zm.3 0c0 1.4-1 2.2-2.6 2.2h-1.9v2.2h-.3v-6.5h2.3c1.5-.1 2.5.7 2.5 2.1zM8.7 46.8c-3.2 0-5.9-1-8.5-3.1-.2-.1-.2-.3-.1-.4.1-.2.3-.2.5-.1 2.5 2 5.1 2.9 8.1 2.9 4.1 0 9-1.2 9-7.1 0-4.5-4.2-6-8.6-7.6C4.8 29.9.3 28.3.3 23.6c0-5.4 4.9-7.4 9.1-7.4 4.2 0 6.4 1.3 8.3 2.6.2.1.2.3.1.5s-.3.2-.5.1c-1.2-.9-3.3-2.5-7.8-2.5C8 17 1 17.4 1 23.7c0 4.2 4 5.6 8.3 7.1 4.5 1.6 9.1 3.2 9.1 8.2-.1 5.1-3.4 7.8-9.7 7.8zM117 46.6c-.1 0-.3-.1-.3-.2l-11.5-27.6-11.5 27.6c-.1.2-.3.3-.5.2-.2-.1-.3-.3-.2-.5l11.8-28.4c.1-.3.5-.3.6 0l11.8 28.4c.1.2 0 .4-.2.5.1 0 .1 0 0 0z" /><path d="M82.7 18.3c-.1 0-.3-.1-.3-.2L75.1.5c-.1-.2 0-.4.2-.5.2-.1.4 0 .5.2l7 16.8 7-16.8c0-.2.2-.2.3-.2.2.1.3.3.2.5L83 18c0 .2-.2.3-.3.3z" fill="#F3932B"/><path d="M55.6 46.6c-.1 0-.3-.1-.3-.2L43.8 18.8 32.3 46.4c-.1.2-.3.3-.5.2-.2-.1-.3-.3-.2-.5l11.8-28.4c.1-.3.5-.3.6 0l11.8 28.4c.1.2 0 .4-.2.5.1 0 0 0 0 0zM71.3 46.6c-.1 0-.3-.1-.3-.2L59.1 18c-.1-.2 0-.4.2-.5.2-.1.4 0 .5.2l11.8 28.4c.1.2 0 .4-.2.5h-.1zM133.1 46.6c-.2 0-.4-.2-.4-.4V17.3c0-.2.2-.4.4-.4h7.7c8.1 0 11.5 2.4 11.5 8.2 0 7.6-7 8.5-12.3 8.5-.2 0-.4-.2-.4-.4s.2-.4.4-.4c5.4 0 11.6-.9 11.6-7.8 0-5.5-2.9-7.5-10.8-7.5h-7.3v28.6c0 .4-.2.5-.4.5z" /><path d="M152.3 46.6c-.1 0-.2 0-.3-.1l-12.4-12.9c-.1-.1-.1-.4 0-.5.1-.1.4-.1.5 0L152.5 46c.1.1.1.4 0 .5-.1.1-.1.1-.2.1zM176.2 46.6c-.2 0-.4-.2-.4-.4V17.3c0-.2.2-.4.4-.4s.4.2.4.4v28.9c-.1.3-.2.4-.4.4z" /><path d="M186.4 17.7H166c-.2 0-.4-.2-.4-.4s.2-.4.4-.4h20.4c.2 0 .4.2.4.4s-.2.4-.4.4z" /></g><defs><clipPath id="cclip0_134_1643"><path  d="M0 0h186.7v80.8H0z"/></clipPath></defs></svg><svg  viewBox="0 0 25 30" id="M1" xmlns="http://www.w3.org/2000/svg"><path d="M24.6 29.6c-.1 0-.3-.1-.3-.2L12.8 1.8 1.3 29.4c-.1.2-.3.3-.5.2-.2-.1-.3-.3-.2-.5L12.4.7c.1-.3.5-.3.6 0l11.8 28.4c.1.2 0 .4-.2.5 0 0 .1 0 0 0z" /></svg><svg  viewBox="0 0 13 30" id="M2" xmlns="http://www.w3.org/2000/svg"><path d="M12.3 29.6c-.1 0-.3-.1-.3-.2L.1 1C0 .8.1.6.3.5.5.4.7.5.8.7l11.8 28.4c.1.2 0 .4-.2.5h-.1z" /></svg><svg  viewBox="0 0 21 31" id="R" xmlns="http://www.w3.org/2000/svg"><path d="M1.1 30.6c-.2 0-.4-.2-.4-.4V1.3c0-.2.2-.4.4-.4h7.7c8.1 0 11.5 2.4 11.5 8.2 0 7.6-7 8.5-12.3 8.5-.2 0-.4-.2-.4-.4s.2-.4.4-.4c5.4 0 11.6-.9 11.6-7.8 0-5.5-2.9-7.5-10.8-7.5H1.5v28.6c0 .4-.2.5-.4.5z" /><path d="M20.3 30.6c-.1 0-.2 0-.3-.1L7.6 17.6c-.1-.1-.1-.4 0-.5.1-.1.4-.1.5 0L20.5 30c.1.1.1.4 0 .5-.1.1-.1.1-.2.1z" /></svg><svg  viewBox="0 0 19 31" id="S" xmlns="http://www.w3.org/2000/svg"><path d="M8.7 30.8c-3.2 0-5.9-1-8.5-3.1-.2-.1-.2-.3-.1-.4.1-.2.3-.2.5-.1 2.5 2 5.1 2.9 8.1 2.9 4.1 0 9-1.2 9-7.1 0-4.5-4.2-6-8.6-7.6C4.8 13.9.3 12.3.3 7.6.3 2.2 5.2.2 9.4.2c4.2 0 6.4 1.3 8.3 2.6.2.1.2.3.1.5s-.3.2-.5.1C16.1 2.5 14 .9 9.5.9 8 1 1 1.4 1 7.7c0 4.2 4 5.6 8.3 7.1 4.5 1.6 9.1 3.2 9.1 8.2-.1 5.1-3.4 7.8-9.7 7.8z" /></svg><svg  viewBox="0 0 22 31" id="T" xmlns="http://www.w3.org/2000/svg"><path d="M11.2 30.6c-.2 0-.4-.2-.4-.4V1.3c0-.2.2-.4.4-.4s.4.2.4.4v28.9c-.1.3-.2.4-.4.4z" /><path d="M21.4 1.7H1c-.2 0-.4-.2-.4-.4S.8.9 1 .9h20.4c.2 0 .4.2.4.4s-.2.4-.4.4z" /></svg><svg  viewBox="0 0 16 19" id="V" xmlns="http://www.w3.org/2000/svg"><path d="M7.7 18.3c-.1 0-.3-.1-.3-.2L.1.5C0 .3.1.1.3 0c.2-.1.4 0 .5.2l7 16.8 7-16.8c0-.2.2-.2.3-.2.2.1.3.3.2.5L8 18c0 .2-.2.3-.3.3z" fill="#F3932B"/></svg><svg viewBox="0 0 26 9" id="menu-icon" xmlns="http://www.w3.org/2000/svg"><path stroke="#fff" d="M0 .5h26M0 8.5h26"/></svg><svg viewBox="0 0 320 512" id="xmark" xmlns="http://www.w3.org/2000/svg"><!--! Font Awesome Pro 6.1.1 by @fontawesome - https://fontawesome.com License - https://fontawesome.com/license (Commercial License) Copyright 2022 Fonticons, Inc.--><path d="M310.6 361.4c12.5 12.5 12.5 32.75 0 45.25-6.2 6.25-14.4 9.35-22.6 9.35s-16.38-3.125-22.62-9.375L160 301.3 54.63 406.6C48.38 412.9 40.19 416 32 416s-16.37-3.1-22.625-9.4c-12.5-12.5-12.5-32.75 0-45.25l105.4-105.4L9.375 150.6c-12.5-12.5-12.5-32.75 0-45.25s32.75-12.5 45.25 0L160 210.8l105.4-105.4c12.5-12.5 32.75-12.5 45.25 0s12.5 32.75 0 45.25l-105.4 105.4L310.6 361.4z"/></svg></svg>